<mxfile host="app.diagrams.net" modified="2024-05-09T23:30:07.201Z" agent="Mozilla/5.0 (Windows NT 10.0; Win64; x64) AppleWebKit/537.36 (KHTML, like Gecko) Chrome/124.0.0.0 Safari/537.36" etag="7lk7UFuyk-wZPX-XR4u1" version="24.3.1" type="github">
  <diagram id="C5RBs43oDa-KdzZeNtuy" name="Page-1">
    <mxGraphModel dx="1114" dy="558" grid="1" gridSize="10" guides="1" tooltips="1" connect="1" arrows="1" fold="1" page="1" pageScale="1" pageWidth="827" pageHeight="1169" math="0" shadow="0">
      <root>
        <mxCell id="WIyWlLk6GJQsqaUBKTNV-0" />
        <mxCell id="WIyWlLk6GJQsqaUBKTNV-1" parent="WIyWlLk6GJQsqaUBKTNV-0" />
        <mxCell id="J6rGEeEvYiq3Rcb_TjSS-3" value="&amp;lt;&amp;lt;interface&amp;gt;&amp;gt; AparelhoTelefonico" style="swimlane;fontStyle=0;childLayout=stackLayout;horizontal=1;startSize=30;horizontalStack=0;resizeParent=1;resizeParentMax=0;resizeLast=0;collapsible=1;marginBottom=0;whiteSpace=wrap;html=1;" vertex="1" parent="WIyWlLk6GJQsqaUBKTNV-1">
          <mxGeometry x="40" y="20" width="170" height="120" as="geometry" />
        </mxCell>
        <mxCell id="J6rGEeEvYiq3Rcb_TjSS-4" value="&lt;div&gt;+ ligar(numero: String): void&lt;/div&gt;&lt;div&gt;&lt;br&gt;&lt;/div&gt;" style="text;strokeColor=none;fillColor=none;align=left;verticalAlign=middle;spacingLeft=4;spacingRight=4;overflow=hidden;points=[[0,0.5],[1,0.5]];portConstraint=eastwest;rotatable=0;whiteSpace=wrap;html=1;" vertex="1" parent="J6rGEeEvYiq3Rcb_TjSS-3">
          <mxGeometry y="30" width="170" height="30" as="geometry" />
        </mxCell>
        <mxCell id="J6rGEeEvYiq3Rcb_TjSS-5" value="+ atender(): void" style="text;strokeColor=none;fillColor=none;align=left;verticalAlign=middle;spacingLeft=4;spacingRight=4;overflow=hidden;points=[[0,0.5],[1,0.5]];portConstraint=eastwest;rotatable=0;whiteSpace=wrap;html=1;" vertex="1" parent="J6rGEeEvYiq3Rcb_TjSS-3">
          <mxGeometry y="60" width="170" height="30" as="geometry" />
        </mxCell>
        <mxCell id="J6rGEeEvYiq3Rcb_TjSS-6" value="+ iniciarCorreioVoz(): void" style="text;strokeColor=none;fillColor=none;align=left;verticalAlign=middle;spacingLeft=4;spacingRight=4;overflow=hidden;points=[[0,0.5],[1,0.5]];portConstraint=eastwest;rotatable=0;whiteSpace=wrap;html=1;" vertex="1" parent="J6rGEeEvYiq3Rcb_TjSS-3">
          <mxGeometry y="90" width="170" height="30" as="geometry" />
        </mxCell>
        <mxCell id="J6rGEeEvYiq3Rcb_TjSS-8" value="&amp;lt;&amp;lt;interface&amp;gt;&amp;gt; NavegadorInternet" style="swimlane;fontStyle=0;childLayout=stackLayout;horizontal=1;startSize=30;horizontalStack=0;resizeParent=1;resizeParentMax=0;resizeLast=0;collapsible=1;marginBottom=0;whiteSpace=wrap;html=1;" vertex="1" parent="WIyWlLk6GJQsqaUBKTNV-1">
          <mxGeometry x="300" y="20" width="176" height="120" as="geometry" />
        </mxCell>
        <mxCell id="J6rGEeEvYiq3Rcb_TjSS-9" value="&lt;div&gt;+ exibirPagina(url: String): void&lt;/div&gt;&lt;div&gt;&lt;br&gt;&lt;/div&gt;" style="text;strokeColor=none;fillColor=none;align=left;verticalAlign=middle;spacingLeft=4;spacingRight=4;overflow=hidden;points=[[0,0.5],[1,0.5]];portConstraint=eastwest;rotatable=0;whiteSpace=wrap;html=1;" vertex="1" parent="J6rGEeEvYiq3Rcb_TjSS-8">
          <mxGeometry y="30" width="176" height="30" as="geometry" />
        </mxCell>
        <mxCell id="J6rGEeEvYiq3Rcb_TjSS-10" value="+ adicionarNovaAba(): void" style="text;strokeColor=none;fillColor=none;align=left;verticalAlign=middle;spacingLeft=4;spacingRight=4;overflow=hidden;points=[[0,0.5],[1,0.5]];portConstraint=eastwest;rotatable=0;whiteSpace=wrap;html=1;" vertex="1" parent="J6rGEeEvYiq3Rcb_TjSS-8">
          <mxGeometry y="60" width="176" height="30" as="geometry" />
        </mxCell>
        <mxCell id="J6rGEeEvYiq3Rcb_TjSS-11" value="+ atualizarPagina(): void" style="text;strokeColor=none;fillColor=none;align=left;verticalAlign=middle;spacingLeft=4;spacingRight=4;overflow=hidden;points=[[0,0.5],[1,0.5]];portConstraint=eastwest;rotatable=0;whiteSpace=wrap;html=1;" vertex="1" parent="J6rGEeEvYiq3Rcb_TjSS-8">
          <mxGeometry y="90" width="176" height="30" as="geometry" />
        </mxCell>
        <mxCell id="J6rGEeEvYiq3Rcb_TjSS-12" value="&amp;lt;&amp;lt;interface&amp;gt;&amp;gt; ReprodutorMusical" style="swimlane;fontStyle=0;childLayout=stackLayout;horizontal=1;startSize=30;horizontalStack=0;resizeParent=1;resizeParentMax=0;resizeLast=0;collapsible=1;marginBottom=0;whiteSpace=wrap;html=1;" vertex="1" parent="WIyWlLk6GJQsqaUBKTNV-1">
          <mxGeometry x="590" y="20" width="170" height="120" as="geometry" />
        </mxCell>
        <mxCell id="J6rGEeEvYiq3Rcb_TjSS-13" value="+ tocar(): void" style="text;strokeColor=none;fillColor=none;align=left;verticalAlign=middle;spacingLeft=4;spacingRight=4;overflow=hidden;points=[[0,0.5],[1,0.5]];portConstraint=eastwest;rotatable=0;whiteSpace=wrap;html=1;" vertex="1" parent="J6rGEeEvYiq3Rcb_TjSS-12">
          <mxGeometry y="30" width="170" height="30" as="geometry" />
        </mxCell>
        <mxCell id="J6rGEeEvYiq3Rcb_TjSS-14" value="+ pausar(): void" style="text;strokeColor=none;fillColor=none;align=left;verticalAlign=middle;spacingLeft=4;spacingRight=4;overflow=hidden;points=[[0,0.5],[1,0.5]];portConstraint=eastwest;rotatable=0;whiteSpace=wrap;html=1;" vertex="1" parent="J6rGEeEvYiq3Rcb_TjSS-12">
          <mxGeometry y="60" width="170" height="30" as="geometry" />
        </mxCell>
        <mxCell id="J6rGEeEvYiq3Rcb_TjSS-15" value="&lt;div&gt;&amp;nbsp;+ selecionarMusica(musica: String): void&lt;/div&gt;&lt;div&gt;&lt;br&gt;&lt;/div&gt;" style="text;strokeColor=none;fillColor=none;align=left;verticalAlign=middle;spacingLeft=4;spacingRight=4;overflow=hidden;points=[[0,0.5],[1,0.5]];portConstraint=eastwest;rotatable=0;whiteSpace=wrap;html=1;" vertex="1" parent="J6rGEeEvYiq3Rcb_TjSS-12">
          <mxGeometry y="90" width="170" height="30" as="geometry" />
        </mxCell>
        <mxCell id="J6rGEeEvYiq3Rcb_TjSS-16" value="&amp;lt;&amp;lt;class&amp;gt;&amp;gt;&lt;div&gt;IPhone&lt;/div&gt;" style="swimlane;fontStyle=0;childLayout=stackLayout;horizontal=1;startSize=30;horizontalStack=0;resizeParent=1;resizeParentMax=0;resizeLast=0;collapsible=1;marginBottom=0;whiteSpace=wrap;html=1;" vertex="1" parent="WIyWlLk6GJQsqaUBKTNV-1">
          <mxGeometry x="318" y="320" width="140" height="90" as="geometry" />
        </mxCell>
        <mxCell id="J6rGEeEvYiq3Rcb_TjSS-17" value="- marca : String" style="text;strokeColor=none;fillColor=none;align=left;verticalAlign=middle;spacingLeft=4;spacingRight=4;overflow=hidden;points=[[0,0.5],[1,0.5]];portConstraint=eastwest;rotatable=0;whiteSpace=wrap;html=1;" vertex="1" parent="J6rGEeEvYiq3Rcb_TjSS-16">
          <mxGeometry y="30" width="140" height="30" as="geometry" />
        </mxCell>
        <mxCell id="J6rGEeEvYiq3Rcb_TjSS-18" value="- modelo : String" style="text;strokeColor=none;fillColor=none;align=left;verticalAlign=middle;spacingLeft=4;spacingRight=4;overflow=hidden;points=[[0,0.5],[1,0.5]];portConstraint=eastwest;rotatable=0;whiteSpace=wrap;html=1;" vertex="1" parent="J6rGEeEvYiq3Rcb_TjSS-16">
          <mxGeometry y="60" width="140" height="30" as="geometry" />
        </mxCell>
        <mxCell id="J6rGEeEvYiq3Rcb_TjSS-20" value="" style="endArrow=classic;html=1;rounded=0;entryX=0.624;entryY=0.933;entryDx=0;entryDy=0;entryPerimeter=0;" edge="1" parent="WIyWlLk6GJQsqaUBKTNV-1" target="J6rGEeEvYiq3Rcb_TjSS-6">
          <mxGeometry width="50" height="50" relative="1" as="geometry">
            <mxPoint x="318" y="320" as="sourcePoint" />
            <mxPoint x="368" y="270" as="targetPoint" />
          </mxGeometry>
        </mxCell>
        <mxCell id="J6rGEeEvYiq3Rcb_TjSS-21" value="" style="endArrow=classic;html=1;rounded=0;entryX=0.324;entryY=1.133;entryDx=0;entryDy=0;entryPerimeter=0;" edge="1" parent="WIyWlLk6GJQsqaUBKTNV-1" target="J6rGEeEvYiq3Rcb_TjSS-15">
          <mxGeometry width="50" height="50" relative="1" as="geometry">
            <mxPoint x="458" y="320" as="sourcePoint" />
            <mxPoint x="508" y="270" as="targetPoint" />
          </mxGeometry>
        </mxCell>
        <mxCell id="J6rGEeEvYiq3Rcb_TjSS-22" value="" style="endArrow=classic;html=1;rounded=0;entryX=0.523;entryY=1.033;entryDx=0;entryDy=0;entryPerimeter=0;" edge="1" parent="WIyWlLk6GJQsqaUBKTNV-1" target="J6rGEeEvYiq3Rcb_TjSS-11">
          <mxGeometry width="50" height="50" relative="1" as="geometry">
            <mxPoint x="390" y="320" as="sourcePoint" />
            <mxPoint x="550" y="170" as="targetPoint" />
            <Array as="points">
              <mxPoint x="390" y="320" />
            </Array>
          </mxGeometry>
        </mxCell>
      </root>
    </mxGraphModel>
  </diagram>
</mxfile>
